<svg xmlns="http://www.w3.org/2000/svg" viewBox="0 0 24 24" id="Search"><path style="line-height:normal;font-variant-ligatures:normal;font-variant-position:normal;font-variant-caps:normal;font-variant-numeric:normal;font-variant-alternates:normal;font-variant-east-asian:normal;font-feature-settings:normal;font-variation-settings:normal;text-indent:0;text-align:start;text-decoration-line:none;text-decoration-style:solid;text-decoration-color:#000;text-transform:none;text-orientation:mixed;white-space:normal;shape-padding:0;shape-margin:0;inline-size:0;isolation:auto;mix-blend-mode:normal;solid-color:#000;solid-opacity:1" d="m 17.60618,295.04472 c -3.10207,-3.10204 -8.1620102,-3.10337 -11.2640702,-10e-4 -3.10206,3.10204 -3.09945,8.16073 0.003,11.26278 1.31541,1.31541 2.98305,2.067 4.7034102,2.26683 l 10e-4,6.07723 c 5.2e-4,0.51831 0.42004,0.93891 0.93835,0.93835 0.51756,-5.2e-4 0.93783,-0.42079 0.93835,-0.93834 l -0.001,-6.07983 c 1.7122,-0.20389 3.37053,-0.95467 4.68007,-2.2642 3.10205,-3.10205 3.10333,-8.15943 0.001,-11.26149 z m -1.32716,1.32717 c 2.38482,2.3848 2.38353,6.22236 -10e-4,8.60714 -2.38479,2.38479 -6.22102,2.38478 -8.6058502,-3e-5 -2.38481,-2.3848 -2.38742,-6.22366 -0.003,-8.60844 2.3848002,-2.38477 6.2249202,-2.38347 8.6097302,10e-4 z" color="#000" enable-background="accumulate" font-family="sans-serif" font-weight="400" overflow="visible" transform="matrix(.75348 -.75349 .75348 .75349 -225.102 -207.05)" fill="#d8a353" class="color000000 svgShape"></path></svg>